<svg xmlns="http://www.w3.org/2000/svg" fill="none" viewBox="0 0 394 80"><path fill="#000" d="M262 0h68.5v12.7h-27.2v66.6h-13.6V12.7H262V0ZM149 0v12.7H94v20.4h44.3v12.6H94v21h55v12.6H80.5V0h68.7zm34.3 0h-17.8l63.8 79.4h17.9l-32-39.7 32-39.6h-17.9l-23 28.6-23-28.6zm18.3 56.7-9-11-27.1 33.7h17.8l18.3-22.7z"/><path fill="#000" d="M81 79.3 17 0H0v79.3h13.6V17l50.2 62.3H81Zm252.6-.4c-1 0-1.8-.4-2.5-1s-1.1-1.6-1.1-2.6.3-1.8 1-2.5 1.6-1 2.6-1 1.8.3 2.5 1a3.4 3.4 0 0 1 .6 4.3 3.7 3.7 0 0 1-3 1.8zm23.2-33.5h6.2c.3 0 .5.1.5.3v45.4c0 .3-.2.4-.5.4h-6.2c-.3 0-.5-.1-.5-.4V45.7c0-.2.2-.3.5-.3zm-25.4 0h6.1c.3 0 .5.1.5.3v45.4c0 .3-.2.4-.5.4h-6.1c-.3 0-.5-.1-.5-.4V45.7c0-.2.2-.3.5-.3zm1.1-33.4c0-1.7.7-3.2 2.1-4.6 1.4-1.4 3-2.1 4.9-2.1 1.9 0 3.5.7 4.9 2.1 1.4 1.4 2.1 2.9 2.1 4.6 0 1.7-.7 3.2-2.1 4.6-1.4 1.4-3 2.1-4.9 2.1-1.9 0-3.5-.7-4.9-2.1-1.4-1.4-2.1-2.9-2.1-4.6zm-74.5 7.2c-.8-.6-1.6-.9-2.5-.9-1.1 0-2.1.4-2.9 1.1-.8.8-1.1 1.7-1.1 2.8v32.4c0 .3-.2.4-.5.4h-6.2c-.3 0-.5-.1-.5-.4V13.7c0-.3.2-.4.5-.4h6.2c.3 0 .5.1.5.4v1.9c.8-.7 1.8-1.2 2.9-1.5 1.1-.3 2.2-.3 3.3 0 1.1.3 2.2.9 3.2 1.8.9.8 1.5 1.8 1.8 2.9.3 1.1.3 2.2 0 3.3-.3 1.1-.8 2.1-1.6 2.9-.8.8-1.8 1.3-2.9 1.6-1.1.3-2.2.3-3.3 0-1.1-.3-2.1-.9-3-1.8zm-7.2-14.3c0-1.3.5-2.4 1.5-3.3.9-.9 2.1-1.3 3.5-1.3 1.4 0 2.6.4 3.5 1.3 1 .9 1.5 2 1.5 3.3 0 1.3-.5 2.4-1.5 3.3-.9.9-2.1 1.3-3.5 1.3-1.4 0-2.6-.4-3.5-1.3-1-.9-1.5-2-1.5-3.3z"/></svg> 